<?xml version='1.0' encoding='utf-8'?>
<svg xmlns="http://www.w3.org/2000/svg" version="1.1" id="Layer_1" x="0px" y="0px" viewBox="0 0 6000 1631.2908" enable-background="new 0 0 6000 1631.2908"> <path d="M5970.2715,774.7099c-0.0269-4.0871-3.4883-5.8823-11.415-5.9201c-8.3804-0.04-10.2573,0.7892-7.0654,3.1227 c2.9028,2.1227,2.6587,3.1024-0.7725,3.1024c-1.7524,0-3.6812-1.2034-4.8931-3.0526c-1.7251-2.6332-2.3584-2.8607-4.6104-1.6555 c-2.2207,1.1884-2.9839,0.9614-5.1133-1.5204c-3.0898-3.6019-9.1733-3.4678-9.1733,0.2022c0,3.2596-4.1973,5.169-8.8643,4.0324 c-10.2803-2.5036-23.042-0.131-24.3213-3.4638c-1.0947-2.8525,0.3062-5.1088,4.1641-6.7068 c4.0659-1.6841,4.3584-3.1172,1.4019-6.8661c-1.873-2.3755-2.8022-2.5684-8.7656-1.8193c-6.6069,0.8298-6.6743,0.8801-7.0376,5.213 c-0.3242,3.8818,0.0518,4.5479,3.3354,5.9082c6.312,2.6143,4.5845,4.2244-2.1177,1.9742c-1.6812-0.5645-3.4526-0.3834-4.4648,0.4566 c-1.1538,0.9575-5.3975,1.1603-13.5859,0.6495c-18.1431-1.1317-19.6597-1.4958-20.521-4.9267 c-0.9971-3.9752-5.0293-3.9426-6.5483,0.0532c-0.6343,1.6677-1.6035,3.0322-2.1533,3.0322c-1.7402,0-3.9111-2.8275-3.9111-5.0941 c0-3.1444-2.1846-2.6936-2.645,0.5458c-0.3672,2.5865-0.8599,2.7117-9.4482,2.4007c-8.3472-0.3024-13.7573-2.1971-10.1094-3.5403 c1.8867-0.6948,0.6069-4.015-1.5474-4.015c-1.1973,0-1.4565,1.0143-0.9316,3.6386c0.8203,4.0999-0.1719,4.5726-3.4219,1.6313 c-2.9097-2.6331-2.8018-4.5862,0.3691-6.6915c4.4023-2.9234,2.0967-6.593-4.7402-7.5449c-4.9639-0.691-6.0195-0.4446-7.8931,1.8423 c-2.4458,2.9866-2.1372,5.4641,0.6206,4.9833c2.1201-0.3694,6.252,5.2585,5.1592,7.0266c-1.1128,1.8002-6.2515,1.4032-8.2954-0.6407 c-2.5718-2.5726-4.6177-1.1667-7.9473-3.2451c-1.814-1.1327-3.4609-0.976-8.0112,0.762c-4.7881,1.8286-7.645,2.0472-17.3994,1.3312 c-6.4189-0.4711-12.3574-1.4266-13.1968-2.1234c-2.6782-2.2224-1.6504-4.6799,2.7188-6.5057 c2.3345-0.9755,4.2451-2.2675,4.2451-2.871c0-2.2886,2.3208-4.3616-1.144-5.2678c-1.3721-0.3588-2.4946-1.5221-2.4946-2.5851 c0-2.3087-0.2212-2.3273-6.2305-0.5269c-9.6396,2.8882-9.1001-4.3288-13.3848,1.2413c-3.2793,4.2624-2.9043,8.2685,0.7744,8.2685 c4.6235,0,11.564,3.7745,11.564,6.2889c0,2.3848-0.5806,2.5479-7.8838,2.215c-5.3672-0.2447-11.3081-3.387-13.6553-7.2222 c-2.2563-3.6895-4.0205-1.4984-6.3569-4.3139c-0.8306-1.0006-2.8076-1.8193-4.3936-1.8193c-2.2485,0-2.8833,0.6519-2.8833,2.9606 c0,1.6283,0.5933,3.3272,1.3184,3.7754c0.8076,0.4992,0.8838,1.2496,0.1963,1.9367c-1.4463,1.4464-11.2881-0.1052-11.8647-1.8704 c-0.5801-1.7738-2.8008-45.4931-2.9043-47.4329c8.376-7.4843,8.4858-7.027-5.2666-15.7198 c2.6807-40.9257,2.6763-19.8342,5.0659-54.6257c-1.4341,5.484-3.2656,11.9429-4.7451,21.2249 c-2.7383,17.1793-6.3691,34.6411-7.4893,36.016c-1.4175,1.7404-9.9287,4.5535-19.4897,6.4416 c-11.04,2.1801-8.7295,4.0675,4.084,3.3369c10.6577-0.6077,11.1851-0.5151,14.5801,2.5607c2.8418,2.575,4.085,5.5331,6.437,15.3198 c3.5039,14.5793,4.5571,29.288,2.0605,28.7628c-0.9043-0.1902-2.4004,0.2819-3.3247,1.049 c-2.2622,1.8779-12.5386,0.3089-13.4443-2.0529c-0.5254-1.3684-1.9023-1.6038-5.8867-1.0064 c-4.6831,0.7024-5.4058,0.4663-7.2666-2.3738c-1.1362-1.7346-2.7637-3.1537-3.6167-3.1537c-0.8521,0-1.8643-0.8187-2.248-1.8193 c-0.8286-2.1589-5.7588-2.4142-7.7705-0.4025c-1.0801,1.0806-2.1846,0.6487-4.6523-1.8193c-4.3867-4.3863-8.6816-4.34-9.1924,0.0992 c-0.5308,4.6094-3.6377,4.224-4.8896-0.6064c-1.0205-3.9393-4.5903-5.5899-4.5903-2.1225c0,1.4635-1.8726,1.8193-9.5732,1.8193 c-10.0356,0-11.0454-0.5637-11.0454-6.1635c0-3.0338-1.9912-2.9795-3.6387,0.0992c-2.103,3.9291-10.9731,3.3564-16.0283-1.035 c-6.3945-5.5547-9.1782-6.6791-11.2949-4.5621c-3.2656,3.2654-19.6895,1.1389-24.4238-3.1624 c-1.8154-1.6494-4.249-2.3551-7.8833-2.2858c-11.8042,0.225-18.3901,0.027-19.3765-0.5823 c-0.5723-0.3542-1.0415-5.9734-1.0415-12.4871c0-33.5086-5.1479-77.199-2.0869-80.4479c4.5444-4.8253,4.752-5.5273,2.5991-8.8123 c-2.3159-3.5352-3.0659-2.328,10.1001-16.2733c5.1055-5.4084,6.1948-7.4044,4.0396-7.4044c-2.4155,0-20.8896,19.3857-23.9502,19.4 c-2.2451,0.0089-14.1875-13.8527-23.1294-26.8467c-7.3022-10.6118-11.2349-14.8813-11.2349-12.1966 c0,1.6412,5.5933,8.2309,21.0864,35.68c2.2603,4.0042,3.001,6.6526,2.4614,8.802c-0.499,1.9887-0.021,4.2195,1.353,6.3166 c2.2627,3.4539,2.2666,2.3239-0.1768,52.5316c-0.9404,19.3168,0.5737,20.5154,2.001,1.5844 c3.4458-45.6985,4.1694-51.3115,6.6152-51.3115c2.8442,0,2.9707,20.5592,4.1621,89.7513c-2.3682,0-6.314,0.2992-9.0723-1.748 c-1.2949-0.9614-3.4834-1.4728-4.8633-1.1366c-4.6382,1.1299-53.3438-8.9568-66.3633-9.1555 c-3.1978-0.0488-7.1685-0.9828-8.8423-2.0798c-5.1846-3.3963-2.9316,0.7784-17.5518,0.7784c-6.8594,0-8.8926-0.4597-10.8975-2.4644 c-1.7095-1.71-3.0444-2.1395-4.3604-1.4031c-3.7861,2.1187-7.6484,0.1538-9.9639-5.0684 c-2.7031-6.0961-10.9873-10.9183-16.771-9.7616c-2.2759,0.4553-4.0347,0.127-4.8574-0.907 c-1.5957-2.0068-3.0449-36.4694-1.4927-35.51c0.6045,0.3735,1.0991,1.7384,1.0991,3.0332c0,3.2233,2.8716,2.8392,2.0264,0.6381 c-1.9175-4.9969-5.5962-33.6984-6.1094-47.6593c-0.5352-14.5856-0.3755-16.2924,1.7861-19.0399 c1.6475-2.0941,2.1343-3.9736,1.5908-6.139c-1.0938-4.3571,2.5273-12.1949,14.7119-31.841 c5.6377-9.0907,10.251-16.9786,10.251-17.5286c0-2.6287-2.7051-0.3809-6.9014,5.7344 c-10.1743,14.8287-27.1436,38.0506-28.3501,38.7961c-1.9604,1.2112-15.5073-1.5416-36.625-7.4421 c-19.8911-5.5581-22.7261-6.0854-22.7261-4.2276c0,1.4114,10.1323,4.0821,32.1406,12.4937 c13.2349,5.059,16.4971,6.8283,20.3154,11.0184c2.5015,2.7455,4.5479,6.0143,4.5479,7.264s1.0347,6.4565,2.2993,11.5707 c2.6606,10.7621,2.6382,24.1946,3.6206,67.2917c-6.019-6.5905-6.7847-8.0326-10.7837-7.2328 c-1.9424,0.3886-3.8579,0.1786-4.2573-0.4667c-0.3984-0.6452-2.4663-1.1752-4.5947-1.1777 c-4.0786-0.0048-11.7539-3.9501-11.7539-6.0419c0-0.6769-0.9854-1.2307-2.189-1.2307s-4.1519-1.7983-6.5518-3.9962 c-2.8574-2.6178-8.064-5.2458-15.0942-7.6193c-9.4209-3.1807-10.9541-4.1047-12.5508-7.5649 c-1.6064-3.4802-2.2539-3.8648-5.5313-3.2847c-3.3198,0.5879-3.9282,0.2018-5.7715-3.6643 c-1.2017-2.5189-2.6147-3.9795-3.3877-3.5015c-2.1533,1.3307-12.9248-4.347-13.6963-7.2188 c-1.0669-3.9775,0.208-11.067-2.6582-76.8484c-1.083-24.8445-1.6411-46.4778-1.2407-48.0739 c0.9053-3.6067,13.8501-13.5697,31.6792-24.3815c15.022-9.1102,17.4136-11.027,15.7153-12.5986 c-0.6963-0.6436-10.1504,3.7096-23.5898,10.8617c-20.5566,10.9397-22.875,11.8906-27.7778,11.3944 c-2.9429-0.2977-6.2217-1.3015-7.2866-2.2306c-4.9849-4.347-8.6011-4.2076-34.6768-23.8146 c-8.8745-6.6739-16.7642-12.1343-17.5317-12.1343c-2.6265,0,0.561,3.5934,11.0483,12.4529 c18.5483,15.6718,36.188,31.7649,36.2002,33.0179c0.0044,0.6733,0.7417,2.6312,1.6387,4.3508 c1.3091,2.5075,1.4424,8.1508,0.6733,28.5021c-1.3037,34.5167-1.3174,47.3151-0.0498,45.9334 c2.2622-2.465,5.8101-71.144,7.5024-66.426c1.1006,3.0674,2.4395,108.076,2.769,113.1437c0.2827,4.3772-2.8496,4.3645-7.7319-0.0313 c-7.0757-6.3708-10.9087-5.7046-17.7319-13.868c-3.6523-4.3687-5.3438-5.4686-8.4111-5.4686c-2.1118,0-4.4956-0.7908-5.2983-1.7573 c-0.8018-0.9665-3.4614-2.3972-5.9097-3.1793c-11.855-3.7875-15.5029-10.8306-19.8574-10.8306 c-2.5205,0-8.9932-3.0331-9.6509-4.5226c-0.772-1.7509-6.5752-2.785-9.4048-8.3694c-1.7114-3.3776-10.4512-8.9824-13.9561-8.9497 c-2.1895,0.0203-25.7754-12.1181-27.8345-12.1181c-1.1377,0-9.3999-3.8738-11.1641-4.6775 c-4.564-108.2136-5.2158-116.608-2.4839-116.608c4.3755,0,38.3833,14.2162,38.3467,10.006 c-0.0049-0.5003-8.1914-4.3785-18.1929-8.6183c-16.8599-7.147-18.1875-7.9424-18.2256-10.9157 c-0.0474-3.764-3.4116-8.2176-6.6841-8.8478c-3.1963-0.6155-11.9902-23.0244-18.729-47.7249 c-7.8657-28.834-10.375-28.7825-3.6196,0.0743c3.6318,15.5122,7.9868,36.9026,9.3042,45.6994 c1.0449,6.9739-2.2725,5.6971-1.8867,11.3911c0.3833,5.6545-7.4526,13.4534-7.4526,15.4641 c0,0.9591-15.2319,26.6959-19.5947,33.1081c-3.5757,5.2555-4.8101,10.3071-1.9336,7.9132 c0.834-0.6939,8.6113-11.9596,17.2832-25.0346c15.3188-23.0964,19.3623-27.4666,22.3804-24.1847 c1.0781,1.1727,4.0107,113.3418,2.9902,114.3628c-0.8306,0.83-7.5215-3.2727-21.0771-9.0172 c-12.2095-5.1735-13.0024-5.7617-14.0205-10.3973c-0.5664-2.579-2.1421-4.2737-5.625-6.0507 c-6.5103-3.3213-12.0493-2.7223-14.0732,1.5219l-1.5464,3.2434c-24.9473-7.2021-29.8149-7.947-33.3096-9.3944 c-1.3345-0.5526-7.2998-1.9319-13.2573-3.065c-15.4053-2.9302-15.2192-2.7705-15.3799-13.1725 c-0.1611-10.4843-3.0166-61.9266-1.3457-66.3456c1.0479-2.7712-0.7495-10.0205-5.1919-20.9374 c-1.0444-2.5665-3.0303-2.8073-3.0303-0.3674c0,0.9653-1.2417,4.1035-2.7603,6.9739c-3.8418,7.2614-1.4312,3.0609-0.3804,36.9211 c0.5762,18.5711,0.4014,22.2327-1.1206,23.496c-2.3037,1.9118-2.2974,4.517,0.0161,6.8306 c1.1123,1.1122,1.8193,4.0838,1.8193,7.6453c0,6.7281,0.8867,10.2615,1.5225,13.4388c-25.6475-1.5597-24.5566-0.8202-28.8545-5.7722 c-4.3164-4.9738-8.7188-5.2029-8.0376-0.4182c0.3989,2.8014,0.2524,2.8518-5.458,1.8831 c-7.5981-1.2891-80.5957-0.4461-100.4702,0.0301c-0.7021-9.7028-1.1802-10.352,2.0527-10.0041 c2.2622,0.2435,2.874-0.3589,3.1929-3.1413c0.2266-1.9792-0.4512-4.377-1.5947-5.6407c-1.3105-1.4481-1.5488-2.4705-0.6978-2.9965 c1.7002-1.0508,1.6758-9.1453-0.0278-9.1453c-0.8452,0-1.0586-1.6348-0.5933-4.5482c0.9229-5.7848-0.6816-8.7438-3.4819-6.4199 c-3.8384,3.1859-4.585-2.3733,1.1396-2.3733c3.4419,0,4.9868-3.6432,3.0669-7.2314c-0.8989-1.679-2.5405-2.4715-5.1206-2.4715 c-4.2217,0-3.6577-1.6758,0.5933-1.7638c4.312-0.0892,4.2744-2.4447-0.0459-2.8613c-3.9106-0.377-3.9438-0.435-4.1631-7.2771 c-0.7163-22.3356,2.7559-30.825,1.7192-33.9379c-0.7188-2.1571-3.623-1.7747-5.0215,0.6612 c-1.4038,2.4465-1.3765,2.0339-8.7344-2.084c0.6436,9.4526,1.3535,18.6362,2.082,39.5193 c0.6279,18.0166,0.5938,18.3447-1.9785,19.0174c-2.0986,0.5488-2.4434,1.2422-1.7388,3.4985 c0.4834,1.5477,1.3545,3.1212,1.936,3.4969c0.5811,0.3756,0.6997,3.2894,0.2627,6.4753c-0.6133,4.4765-1.4414,6.0877-3.646,7.0921 c-3.0933,1.4095-3.6021,2.7298-1.5415,4.0032c0.7212,0.4457,1.0063,2.0251,0.6338,3.5098s-0.1821,4.4269,0.4233,6.5384 c1.0576,3.6871,0.9604,3.839-2.4526,3.839c-3.2529,0-3.5542,0.3594-3.5542,4.245c0,6.1412-2.4253,4.1624-2.4253,3.0321 c0-1.5612-2.4258-1.8514-2.4258,0.6064c0,1.112-1.1323,1.8193-2.9126,1.8193c-1.6016,0-9.9248,2.1975-18.4956,4.8833 c-21.3237,6.6819-32.6167,6.7968-70.3989,8.3889c-2.0962-52.5315-7.2095-168.1469-6.1484-169.2078 c0.8262-0.8261,19.0391,28.7939,20.8823,30.0698c3.2461,2.2446,1.3843-3.0974-4.4546-12.7795 c-8.6748-14.3861-7.2373-12.1862-13.3784-22.2208c-11.0068-17.9858,1.5161-17.752,1.5161-23.6379 c0-2.6417-7.1338-9.5317-9.0918-8.7805c-2.8472,1.0928-4.5283-18.8688-4.0752-48.3994c0.5688-37.0965-1.4658-39.0688-3.417-3.3129 c-2.9443,53.9342-3.7856,51.9848-7.8618,57.0821c-8.4248,10.5348-47.6543,35.0949-39.7529,35.0949 c1.71,0,38.7349-23.4562,40.3945-24.4959c2.5283,0.8344,9.1685,2.6715,10.4272,5.0235c1.1782,2.2018,2.1113,38.4366,3.1558,122.565 c0.7026,56.5881,0.6431,58.9156-1.5645,61.2492c-2.1548,2.2768-3.2583,2.3727-17.9956,1.5619 c-44.3218-2.4384-50.3076-2.9366-51.6719-4.3008c-0.8789-0.8791-1.7988-8.1875-2.3604-18.7565 c-0.9409-17.7177-6.3994-143.0646-5.3315-161.5677l5.458,8.1092c4.7329,7.0325,8.4902,10.2526,8.4897,7.2765 c0-0.5003-3.5474-6.0527-7.8833-12.3391c-6.4287-9.3203-7.8838-12.3095-7.8838-16.1988c0-3.643,0.7163-5.333,3.0322-7.1547 c8.356-6.5722-4.2046-10.642-4.2632-14.6501c-0.0122-0.9877-0.4155-0.88-1.1694,0.3124c-1.0225,1.6173-1.3428,1.6173-2.8853,0 c-3.5098-3.6801-5.8159-16.5731-8.0776-45.1575c-4.8188-60.898-3.3018-18.8912-2.021,47.2741 c-3.2505,3.4691-5.5137,5.0522-4.8428,9.4055c0.6074,3.9396-1.5225,8.2542-13.8623,28.081 c-7.0742,11.3664-9.5981,16.8361-7.397,16.0286c0.6699-0.2458,6.7739-8.77,13.5645-18.9429 c12.6416-18.9371,14.3896-20.4967,19.4155-17.3193c3.3823,2.1386,3.3911,50.3451,4.2617,195.7965 c-83.3999,1.0162-65.3809,2.5274-99.4541,11.6606c-17.7754,4.7646-15.354,4.3114-38.2051,10.1781 c-36.9155,9.4777-64.9624,20.0036-66.7153,18.0857c-1.2729-1.3915-2.7144-72.1331-5.2334-126.8849 c32.4165,2.4266,33.7441,2.7944,33.7441,0.3572c0-1.3409-3.3491-2.485-12.7354-4.3509c-10.4854-2.0844-12.9727-3.003-14.082-5.2001 c-2.4834-4.9186-6.8823-8.6418-10.21-8.6418c-2.9307,0-3.8755-1.2836-9.5952-13.0383 c-11.1216-22.8542-24.3296-71.4713-24.3296-60.5761c0,2.8,5.5508,21.0092,13.9585,53.5113 c5.543,21.4261,5.5947,21.8055,3.5967,26.2361c-1.6406,3.6384-1.7505,5.0121-0.5771,7.2042 c2.0186,3.7722,1.6191,5.3148-10.2017,39.4055c-5.7798,16.6677-10.3188,31.4039-10.0874,32.7471 c0.7822,4.5377,0.144,3.2928,24.4819-58.807c2.1729-5.5444,3.167-6.7356,5.8892-7.0551c1.9307-0.2267,3.4805,0.271,3.7754,1.2129 c0.6631,2.1151,1.9746,122.8362,2.0269,127.1272c-5.2271,2.0842-8.0737,2.9034-17.0957,5.3624 c-74.6069,20.3345-60.8906,31.0477-112.189,26.438c-18.7183-1.6821-91.1143,3.2275-93.9033,0.2379 c-0.8579-0.9199-3.7944-79.8434-3.7456-100.6751c0.0142-6.0977,0.0723-6.1929,4.6313-7.5589 c9.5264-2.8539,35.4067-1.6305,35.4067-6.2477c0-1.6682-25.9243-1.2429-33.499-1.2429c-5.1865-5.0708-7.3638-7.8969-11.5068-7.4622 c-2.7212,0.2854-3.7451-0.2601-4.6074-2.4529c-0.6094-1.5509-3.835-7.3243-7.1675-12.8298 c-12.8188-21.1784-24.291-58.5165-28.604-58.5165c-2.0103,0-2.0093,0.0052,4.5273,16.98 c21.5635,55.9959,22.4624,58.7083,20.4961,61.8564c-1.8574,2.9744-1.917,6.3676-0.1431,8.1415 c3.7544,3.7592-6.835,34.2946-8.021,34.2639c-0.6675-0.0172-3.0244-2.4363-5.2383-5.3757 c-4.3359-5.7575-4.2124-7.4563,0.8809-12.0653c1.3955-1.2632,2.5381-3.3346,2.5381-4.603c0-2.7776-6.9834-9.4465-9.8916-9.4465 c-1.1406,0-2.3579-0.9551-2.7056-2.1225c-8.6821-29.1768-6.3672-86.0815-10.2437-87.363 c-1.8564-0.6139-1.3198,15.4103,0.0444,88.8791c-1.9302,2.555-6.312,7.812-6.312,11.0503c0,1.4825-0.4106,2.8773-0.9121,3.0997 c-0.5015,0.2223-3.6367,3.679-6.9663,7.6814c-9.772,11.7462-24.9834,27.2558-30.7234,34.7616 c-1.1213,1.4667-1.1692,2.2441-0.1748,2.8586c1.7756,1.0972,35.2893-32.8788,43.0764-40.62l10.8608,1.8502 c0.4458,18.7882,2.1279,83.1126,1.3159,83.9249c-0.9385,0.938-18.3311,3.9597-24.9668,5.1975 c-11.8894,2.2177-12.6238,4.4719-21.4287,5.5419c-8.2341,1.0007-9.4504,2.9924-19.918,5.8266 c-9.5801,2.5939-14.8975,5.4884-28.9988,10.1018c-29.8433,9.7636-30.4087,16.0512-39.418,9.9819 c-9.7341-6.5571-30.6155-12.1755-51.7817-13.9326c-5.1323-0.426-9.8357-1.4132-10.4519-2.1936 c-1.5029-1.9034-2.0125-49.9448-3.8074-94.2023c-2.6841-66.1623-2.6545-63.2098-0.5618-56.3978 c2.8987,9.4357,3.2146,10.071,3.8003,7.6362c0.2729-1.1366-0.729-7.4132-2.2271-13.9478 c-2.8047-12.2352-4.3601-32.0099-4.5833-58.2809c-0.1228-14.4186-0.0354-14.9448,2.9055-17.502 c3.7117-3.2271,4.3665-8.5459,0-11.4069c-5.5171-3.6149-3.4434-12.5594,10.4944-45.2677 c9.1995-21.5886,10.5449-25.5838,8.6082-25.5631c-1.2749,0.014-31.5161,62.1556-33.5718,64.9671 c-1.228,1.6794-2.8867,1.7439-13.8435,0.5382c-11.4753-1.2627-26.4612-4.1559-38.394-7.4124 c-17.7859-4.8541-16.8169-0.9301,1.293,5.2362c35.4407,12.0671,38.1284,13.1985,40.0146,16.8463 c0.9897,1.9135,3.0969,4.3295,4.6833,5.369c6.3657,4.1707,5.0598,13.175,8.6494,27.3345 c1.4031,5.5337,1.7273,24.1703,1.7854,102.4863c0.0662,90.0419-0.0552,95.7485-2.0417,96.1616 c-2.4802,0.5156-47.4741-7.8689-49.4578-9.3965c-0.7085-0.5454-6.1997-3.5987-12.2034-6.785 c-14.4539-7.671-14.3945-9.109-15.8628-9.1594c-1.8132-0.0623-6.7715-10.8774-9.5181-10.8774c-1.0027,0-2.4075-1.0916-3.1213-2.4257 c-2.2417-4.1871-7.7029-0.8958-14.9775-4.119c-4.1514-1.8391-16.3884-4.371-21.1248-4.371c-1.6228,0-8.4907-2.2644-15.2617-5.032 c-18.1387-7.4138-21.4009-8.4723-28.053-9.1021c-3.3213-0.3145-6.1165-0.6741-6.21-0.7992 c-0.2283-0.3042-2.6289-63.1913-4.0828-106.9588c-1.3577-40.8794-2.1257-90.4397-2.6814-122.4984 c7.78-7.519,7.1768-8.3583,26.8196-15.0923c9.5488-3.2738,17.9304-6.5206,18.625-7.2155 c7.1807-7.1805-40.5447,7.4461-43.6052,6.2902c-0.7737-0.2923-1.7559-1.9234-2.1829-3.6247 c-0.7021-2.7961-0.9209-2.8959-2.2798-1.0378c-1.0894,1.4896-2.4082,1.8283-4.7908,1.2303 c-1.8086-0.4539-3.2878-1.2368-3.2878-1.7398s-4.0881-6.0058-9.084-12.2285c-7.5491-9.4019-24.4934-36.9115-32.644-52.9979 c-1.0986-2.1678-2.8018-3.9418-3.7854-3.9418s-1.7883,0.2508-1.7883,0.5573s8.188,16.813,18.1956,36.6818 c17.5493,34.8418,18.1692,36.3247,17.4463,41.7716c-0.5681,4.2829-0.217,6.5481,1.4526,9.3746 c3.8286,6.4812,0.5959,3.4463-7.8594,49.2744c-4.7747,25.8784-9.7485,47.0186-5.3572,42.6273 c0.7947-0.795,6.7102-27.1462,13.1089-58.3944c5.1248-25.0289,7.6025-31.0153,12.1187-29.2823 c2.1003,0.8059,1.8347,23.0693,1.8347,227.5841c-2.2053,0-6.0254,0.3002-6.8269-1.7894c-0.9822-2.5591-7.4211-5.4877-12.0659-5.4877 c-6.1614,0-9.573-6.0367-13.4231-6.1028c-3.05-0.0522-5.9614-2.4318-7.0073-5.7271c-0.8569-2.7003-1.8557-3.1878-5.7483-2.8059 c-1.1084,0.1088-2.3367-0.3223-2.7292-0.9578c-0.3926-0.6354-2.8682-0.8665-5.5007-0.5134 c-3.4568,0.4636-5.3345,0.0945-6.7573-1.3283c-3.2849-3.2853-12.6597-0.8034-15.0125-3.638 c-0.9438-1.137-3.0518-1.4798-6.624-1.0772c-5.4309,0.6121-24.9097-3.5781-26.179-5.6314 c-1.1699-1.8929-42.3059-0.475-49.1907,1.6956c-3.3354,1.0515-10.8835,2.4391-16.7732,3.0835 c-12.1409,1.3283-25.7124,6.183-29.0122,10.3778c-3.8652,4.9143-10.3384,8.1355-14.8704,7.4 c-6.0625-0.9838-26.271-9.2469-29.2358-11.9543c-3.0686-2.802-8.9456-2.7483-11.9883-2.9415 c-6.8169-216.1022-6.4001-229.1898-5.9993-229.5913c1.0657-1.0677,34.7625-0.9159,44.811,0.2021 c5.4824,0.6098,9.1345,0.4943,10.3091-0.3263c3.4539-2.4125-1.9146-4.4752-15.469-5.9436 c-31.0168-3.3598-31.2986-3.4334-35.7351-9.3253c-3.2683-4.3402-4.6968-5.2932-7.9812-5.324 c-5.3909-0.0504-3.4365-0.9174-12.1204-15.3492c-5.9163-9.8314-16.6077-33.0185-25.0957-54.4273 c-6.0732-15.3176-6.9509-16.9166-8.8987-16.2068c-2.2327,0.8132,28.8899,80.9015,28.8899,87.8165 c0,6.5429-3.8523,6.3115-1.2161,12.675c1.3101,3.1629,1.2478,4.3398-0.4033,7.635c-1.0732,2.1426-7.1855,17.2675-13.582,33.6108 c-14.6282,37.3748-17.7568,43.9176-16.2634,45.4214c1.6956,1.7079,2.6636,0.1763,8.2947-13.1217 c8.0776-19.0767,25.6951-59.2758,27.5769-62.9243c2.0183-3.9138,4.1311-3.3353,8.573-3.3353 c1.1016,102.0619,0.8186,111.7206-0.2446,221.9694c-11.2603-9.2396-12.1008-10.6067-21.4233-12.179 c-4.5557-0.7684-8.5708-1.8629-8.9226-2.4322c-1.0811-1.7479-10.5334,0.1783-21.8069-2.7424 c-19.7041-5.1052-37.7229-4.6389-43.9795-7.0673c-6.7227-2.6092-16.824-3.3623-21.7134-1.6189 c-2.5588,0.9125-7.5295,1.6831-11.0461,1.7124c-5.6003,0.0466-6.5586-0.3085-7.7219-2.862 c-1.8728-4.1105-7.3613-4.6467-16.2063-1.5836c-9.0188,3.1232-28.3015,4.2871-40.0242,5.2723 c-6.3328-1.3927-35.2688-7.9906-40.6306-8.0448c-2.335-0.0236-4.8594-0.4439-5.6101-0.934 c-1.447-0.9448-3.5527-60.5858-4.6558-131.8793c-0.9668-62.4799,0.9871-17.4236,5.3596-21.9318 c0.6328-0.6526-0.5818-9.3848-2.9382-21.1246c-4.5161-22.4988-4.1411-24.2982-5.6416-76.1024 c5.0298-5.5064,10.7007-10.4993,4.7488-16.0444c-2.4934-2.323-2.5735-2.8754-1.1934-8.234 c1.6675-6.4727,12.7134-29.7189,22.6497-47.6657c7.0896-12.8051,9.0713-18.1146,6.761-18.1146 c-1.4883,0-4.0149,3.8959-26.7432,41.2371c-19.2629,31.6482-16.6921,28.7384-23.8032,26.9401 c-15.0825-3.8148-11.574-0.1616-43.5247-10.0438c-21.3464-6.6027-26.1189-7.5318-26.9126-5.2396 c-0.5217,1.5082,5.0522,4.0746,25.9592,11.9519c33.1948,12.507,37.157,14.44,39.4714,19.2561 c1.1726,2.4402,2.5706,4.4366,3.1064,4.4366c3.0281,0,6.0417,5.1629,6.8486,11.7315c4.563,37.1379,6.032-14.0966,4.8015,132.7013 c-0.8677,103.5213-0.9209,105.2386-3.2866,105.8571c-1.3225,0.3459-5.197,0.1303-8.6099-0.479 c-5.3789-0.9602-38.1218-3.7236-45.0166-3.7993c-16.7622-0.1841-28.2207-3.1362-57.6345-0.3325 c-21.1414,2.0152-20.1069,2.2018-34.3687-6.2005c-3.9067-2.3016-8.343-4.1848-9.8584-4.1848c-1.5151,0-3.5444-1.1893-4.5095-2.6429 c-1.6216-2.442-2.1624-2.5389-7.1218-1.2741c-8.5708,2.1858-22.9536,3.0977-22.9536,1.4554c0-0.8875-1.8765-1.2696-5.1545-1.0496 c-5.6953,0.3823-12.5576-2.864-13.7297-6.495c-0.3767-1.1673-1.4888-2.1225-2.4714-2.1225c-1.6624,0-6.6765-3.0655-11.7202-7.1661 c-2.5688-2.0882-17.3276-7.3882-20.574-7.3882c-3.1025,0-9.7603-2.465-20.9409-5.2313 c-27.0315-6.6873-21.8323-6.8973-47.9077-6.8973c-0.2083-35.5267-2.7-98.5323-5.2019-249.7355 c6.894-7.8519,7.9246-8.4581,7.0679-13.0247c-0.7251-3.866-0.231-4.6347,8.6887-13.5154 c20.127-20.0399,38.71-30.3108,34.6077-34.4133c-1.3855-1.3852-48.6189,35.3708-50.7329,35.3708 c-0.8276,0-1.7251,0.6612-1.9944,1.4691s-2.6343,1.5633-5.2556,1.6785c-7.3098,0.3209-5.5178-2.532-19.8276-11.0602 c-19.7112-11.7474-46.2883-41.8145-52.0381-41.8145c-1.563,0-2.6602,0.5253-2.4377,1.1674 c0.2224,0.6421,13.3665,14.1969,29.2095,30.1219c27.5969,27.7399,28.8054,29.1503,28.8054,33.624 c0,5.3497,2.2156,7.028,5.3984,10.4163c-0.6768,90.5777-1.0281,105.3857,0.9292,105.3857c1.4238,0,1.9851-8.0198,3.2908-46.9981 c1.6846-50.3089,2.2244-56.701,4.7883-56.701c3.8066,0-0.9133,195.0174-1.0652,247.1496l-10.6123-0.8395 c-11.8938-0.9408-32.9026-3.8994-35.9248-5.0591c-1.0872-0.4173-1.9771-1.519-1.9771-2.4482c0-2.3213-3.6384-1.9599-3.6384-0.5584 c0,2.3948-4.6282,2.3968-12.7607,0.0048c-19.1118-5.6208-26.1968-4.2086-40.605-7.8226 c-10.3496-2.5959-29.1074-3.5254-38.8816-5.4288c-8.0061-1.5585-10.0527,1.0991-25.3997,1.2281 c-13.1956,0.1112-33.7246,2.6964-37.4404,4.7148c-4.8057,2.6104-18.9497-0.6816-60.1946-1.7117 c-0.7234-54.398-2.7732-172.4628-4.5137-262.1925c8.0847-9.2086,11.2014-13.8972,46.6604-31.2107 c14.9919-7.3201,23.9539-12.3643,23.9539-13.4822c0-0.9823-0.8411-1.7863-1.8689-1.7863c-2.5642,0-45.7993,17.8185-56.3481,21.6765 c-7.3345,2.6824-13.7253,2.9121-12.7859,0.4596c0.3191-0.8332,0.0942-2.7434-0.4998-4.245 c-1.0229-2.5863-1.125-2.5224-1.9324,1.2114c-2.3491,10.8645-12.7891-2.3841-26.0996-12.6761 c-6.0439-4.6735-30.1428-28.6324-45.8064-45.541c-6.4949-7.0109-7.9558-7.933-9.2507-5.8378 c-1.4094,2.2804,18.9805,24.0151,46.9795,57.9394c13.4639,16.3133,14.2222,17.5211,14.2222,22.6544 c0,3.2975,0.7422,6.1644,1.8938,7.3161c4.0737,4.0741,0.6111,5.3677-4.251,49.8258c-6.6716,61.0053-7.3853,60.4555-4.0535,59.8136 c3.3677-0.6484,3.7717-18.9444,9.2002-51.9301c5.186-31.5139,6.8894-50.6386,9.5908-52.3085 c2.9409-1.8175,3.4419,0.6399,2.8342,13.8934c-1.5701,34.2502-2.7813,243.3226-4.1628,244.8609 c-0.4282,0.4767-6.5015,0.4767-13.4956,0c-18.1809-1.239-92.9189,0.6742-106.1072,2.7164 c-12.364,1.9146-19.0874,4.1308-28.0432,9.2439c-3.4165,1.9505-7.614,3.5465-9.3279,3.5465s-3.4446,0.5312-3.8459,1.1804 c-1.3245,2.1429-8.3823,4.7599-17,6.3035c-11.6716,2.0906-53.0618,2.1086-59.4299,0.026 c-4.5396-1.4847-14.967-5.6045-18.5874-7.3439c-4.0979-1.9688-37.5776,2.755-40.5432,5.7204 c-1.9629,1.9626-5.1604,0.4739-13.6863,3.7144c-9.5686,3.6367-17.9138,1.2032-30.0586,3.6729 c-10.8162,2.1991-11.4099-0.9594-18.1228,1.8453c-2.4497,1.0236-5.8542,1.8611-7.5654,1.8611 c-5.1738,0-15.0667,5.7685-17.7805,10.368c-3.7571,6.3678-3.7927,2.1991-6.2744,8.1375l-1.6509,3.9513 c-31.9143-0.5111-40.9517-0.779-41.3154-1.1429c-1.106-1.1059-4.0183-276.6642-4.0198-276.7795 c3.915-4.9265,7.3672-8.3059,7.3672-13.6556c0-6.4267,5.4622-13.3679,29.7603-37.8197 c11.6489-11.7224,21.1797-22.2742,21.1797-23.4484c0-1.1744-0.5332-1.9531-1.1848-1.7308 c-2.7866,0.9509-35.5581,30.1348-51.7808,43.7971c-12.4661,10.4986-15.8767,11.4829-22.6157,6.5274 c-2.1235-1.5614-8.2273-4.6958-13.5637-6.9655c-28.1899-11.989-59.5535-36.7916-63.5077-36.0243 c-7.4954,1.4551,5.1742,8.1063,44.7709,37.2205c24.0596,17.6897,25.4075,18.8907,25.4075,22.6381 c0,2.8145,1.0381,4.937,3.595,7.3503c3.4902,3.2926,3.592,3.7172,3.4902,14.3539c-0.1157,12.1579,3.1409,56.495,5.2593,71.6035 c3.5488,25.3075-1.3723,141.6145-1.4285,193.4505c-25.4712-0.0319-53.0139,0.711-83.0822,4.3748 c-13.8578,1.6885-15.309,2.1431-30.3214,9.4979c-20.3831,9.986-25.5922,11.8256-53.8267,19.0099 c-35.6624,9.0743-21.0289,7.1664-55.3302,11.3738c-15.3961,1.8886-22.106,3.1068-50.3335,9.1381 c-32.2836,6.8978-46.5747,6.4725-81.6732,24.5106c-10.0808,5.1805-26.7089,8.4631-52.3473,17.6747 c-15.9424,5.7278-18.0916,6.1853-35.1729,7.4868c-17.0986,1.3028-53.8973,4.6912-56.8679,5.2363 c-1.6064,0.2949-3.3187-123.5745-2.8563-206.6462l0.2944-52.8614c2.6097-3.117,6.933-8.1945,9.3158-11.6376 c3.4749-5.022,28.4061-20.3529,51.072-31.4057c5.8027-2.8296,8.4429-4.8439,8.9388-6.8202 c0.3882-1.5424,0.3932-3.1162,0.0121-3.4973c-0.5581-0.5583-56.3784,24.4539-64.1664,28.752 c-3.3715,1.8607-4.5648,1.3717-4.5648-1.8698c0-1.6677-0.2283-3.0321-0.5072-3.0321s-1.4512-0.3623-2.6051-0.805 c-1.7344-0.6655-1.9932-0.2576-1.4939,2.3542c0.573,2.9977,0.3574,3.1494-4.2103,2.9672c-3.5995-0.1435-5.2897-0.9176-6.6989-3.068 c-1.0364-1.582-6.0199-5.9103-11.0741-9.6188c-10.7245-7.8688-34.2422-30.6056-46.3088-44.7714 c-9.1027-10.6862-13.209-14.0547-15.4473-12.6716c-1.9161,1.1843,3.0321,8.4593,15.8322,23.2771 c27.9231,32.3247,34.4979,42.0291,41.75,49.6644c3.5272,3.7135,4.0807,5.1277,4.0807,10.4246c0,4.588,0.6096,6.6802,2.4257,8.3237 c2.6552,2.4029,3.0917,7.1501,1.2821,13.9478c-1.1592,4.3525-10.6234,99.1263-9.2211,102.7799 c3.8724,10.0907,6.1759-37.3112,16.0248-102.1735c0.9381-6.178,2.4435-9.0964,4.6918-9.0964c2.1735,0,2.2682,12.4162,0.5641,73.9842 c-1.9209,69.3762-4.7838,183.2792-5.4667,185.2635c-0.7029,2.0414-5.2273,0.4957-41.2288,4.5557 c-15.604,1.7597-29.0751,2.6957-32.444,2.2542c-5.136-0.6732-5.761-1.0841-5.761-3.7886c0-2.8808-0.2766-3.0024-5.4928-2.4146 c-4.4691,0.5038-5.7128,0.2078-6.674-1.588c-2.254-4.2143,3.1151-1.6089-1.6467-7.2676c-4.3628-5.1852-3.2678-9.5764-7.0177-11.9182 c-2.447-1.5281-2.5291-1.4266-1.7986,2.2255c0.9896,4.9479-1.9966,9.7546-6.0598,9.7546c-4.204,0-8.8184-3.6998-18.9512-6.6454 c-10.311-2.9974-3.3783-2.6475-13.9709-6.5098c-10.4178-3.7986-18.7788-9.6621-18.0035-12.6262 c0.437-1.6721-0.0992-2.5713-1.7988-3.0157c-1.8752-0.4904-2.3367-1.4741-2.0441-4.358c0.3136-3.0929-0.1368-3.8681-2.6547-4.5696 c-6.4927-1.8091-7.6392-1.3822-6.8524,2.5519c0.6345,3.1732,0.3816,3.6385-1.9789,3.6385c-1.4889,0-4.6134-0.5648-6.9437-1.2549 c-5.4626-1.618-20.4679-4.4261-35.5554-6.6538c-19.1949-2.8343-7.5968-2.1732-26.3346-4.202 c-20.1423-2.1808-46.3839-5.5515-75.6003-7.3537c-24.5708-1.5157-16.9712-2.2792-37.4131-3.119 c-11.1521-0.4581-16.7578-0.7223-23.3904-1.3443c-0.5029-242.5183-0.8409-296.6944,0.9934-299.2031 c1.7675-2.4173,5.181-3.8531,23.2637-9.7853c31.49-10.3303,53.972-10.0369,53.972-16.9492c0-2.94-1.6656-3.0336-13.4399-0.7551 c-33.0691,6.3996-36.3248,5.6834-53.1705,8.6515c-8.6692,1.5272-11.0122-0.3393-11.0122-8.7725c0-4.2118-0.5389-6.121-1.8717-6.6325 c-2.6013-0.9983-3.3901,0.1408-3.4956,5.0463c-0.1379,6.4433-4.2234,5.7236-9.7075-1.7099 c-1.6144-2.1884-4.754-5.9751-6.9772-8.4151c-11.3333-12.4392-33.2742-42.7404-41.0736-56.7244 c-3.9845-7.1427-13.265-19.8768-14.4868-19.8768c-2.0775,0-2.4541,2.2722-0.9398,5.6702 c0.8397,1.8844,5.7587,10.7226,10.9312,19.6405c5.1724,8.9177,9.4043,16.428,9.4043,16.6896 c0,0.9014,9.8169,15.7307,18.7993,32.5903c12.0107,22.5439,13.3885,18.2285,12.1718,27.9697 c-0.6366,5.0976-0.3566,7.3257,1.2697,10.078c1.9762,3.346,1.9751,3.8144-0.0302,8.8194 c-4.2521,10.6128-24.068,91.6203-25.6672,101.6216c-0.6254,3.9131-0.4156,4.9374,1.0122,4.9374 c1.2626,0,2.7845-3.7188,5.087-12.4318c9.3893-35.5251,22.395-75.9632,24.5278-83.17c3.3625-11.3612,5.7491-14.5652,9.7155-13.0432 c1.255,0.4816,1.6183,1.7361,1.1688,4.0352c-0.9557,4.887-2.396,106.0133-5.0504,171.9232 c-1.7587,43.6616-4.458,109.6922-4.2977,119.3823c-8.061-0.6002-15.6904-1.6041-38.7072,0.0211 c-42.6068,3.0085-49.9196,3.0992-51.7169,0.6412c-1.4331-1.9602-1.9756-2.026-4.6974-0.5694 c-2.4227,1.2964-4.2965,1.3647-8.8074,0.321c-6.0851-1.4077-10.4485-1.3451-13.9224,0.2001 c-3.0103,1.3388-35.3571-1.3454-43.3542-3.5977c-13.437-3.7846-31.5343-4.1204-31.5343-8.6016c0-2.0369-0.5892-2.0825-3.4916-0.2696 c-3.8583,2.41-15.9604-5.6127-28.649-8.459c-12.737-2.8572-24.4016-6.077-40.0242-8.2349 c-16.7729-2.3168-29.303-7.5753-36.9921-8.0338c-4.958-0.2957-5.4928-0.6312-5.8416-3.6614c-0.2108-1.8347-1.4711-3.9177-2.8-4.629 c-2.3487-1.257-8.9087-0.5422-11.3705,1.2388c-1.602,1.1591-18.0016,4.1263-22.8613,4.136 c-2.1018,0.0043-7.0965-0.9649-11.0987-2.1537c-21.1232-6.274-20.3475-5.4528-42.0265-0.183 c-6.9944-3.6945-4.3766-2.3119-11.3392-5.9892c-0.1743-99.5177-0.6798-298.7947,0.3447-299.3311 c1.6392-0.8581,29.9861,1.6375,46.3502,4.0804c46.0832,6.8793,43.7303,6.6251,44.83,4.8455 c1.7074-2.7624,0.1345-4.6409-4.5867-5.4783c-22.9449-4.07-73.3099-15.4394-75.1129-15.8098 c-6.4414-1.3234-1.8172-3.2905-6.3675-9.1069c-3.5714-4.5673-1.6534-7.8689-3.6385-9.0964 c-2.2005-1.3607-0.0341-7.8836-3.0322-7.8836c-2.1835,0-2.4772,3.6053-0.3032,3.7154c0.8339,0.0424,0.2535,0.5835-1.2904,1.2026 c-2.9125,1.168-2.6075,3.5719,0.4525,3.5719c2.3125,0,2.3053,2.4257,0.0148,2.4257c-2.0283,0-5.5443-3.2372-5.5443-5.1055 c0-0.7115-4.0401-8.45-8.978-17.1966c-8.0754-14.3043-19.8765-41.3982-32.8116-75.3328c-4.8792-12.8-7.1581-16.4587-9.033-14.5023 c-1.8465,1.9271,3.4468,17.2092,36.6498,116.0145c-2.5115,4.2512-4.4061,6.6194-3.6166,11.4851 c0.5862,3.6146-0.0776,5.2401-4.7123,11.5357c-7.8531,10.6666,0.6941-0.6393-22.7807,39.8088 c-11.6133,20.0093-27.6671,49.4021-28.2487,51.719c-0.8557,3.4083,1.1957,3.8081,3.7825,0.7369 c5.9169-7.0234,27.7903-45.1418,55.1008-85.2031c4.1503-6.0874,4.9041-6.6408,8.6232-6.3303 c2.2415,0.1871,4.2438,0.508,4.4487,0.7132c0.5714,0.5719-8.1882,261.2609-10.1399,286.657 c-0.7693,10.0122-0.8137,10.1214-4.8857,12.0536c-3.8405,1.8227-4.9367,1.7813-16.7964-0.6355 c-6.9781-1.422-16.0562-2.5854-20.1744-2.5854c-13.3082,0-8.346-5.0098-15.0884-2.2977 c-5.8839,2.3668-84.3828,0.4695-87.6886,2.2389c-1.0678,0.5716-6.4451,1.2098-11.9492,1.4184 c-7.6496,0.2899-10.5183-0.0583-12.1759-1.4775c-4.1052-3.5149-6.387-3.6678-9.9534-0.6671 c-3.0422,2.5598-4.9556,2.9377-17.7706,3.5094c-18.882,0.8424-19.8515,2.0332-50.7468,5.9238 c-52.2957,6.5855-81.1216,14.924-108.5505,19.9515c-20.4054,3.7404-23.0443,7.5441-23.0443,3.5411 c0-2.7873-4.1052-2.1633-7.1599,1.0882c-2.2913,2.439-4.7193,3.1465-15.0689,4.3906c-20.0444,2.4095-32.9614,4.5836-39.0186,3.3251 c-6.2963-1.3082-3.6852,0.5624-23.046,0.1803c-24.3335-0.4801-31.78-0.3083-57.0042,1.316 c-26.196,1.6868-69.2838,1.0157-77.6227-1.209c-12.1918-3.2526-67.2609-8.9354-70.7779-10.8167 c-3.793-2.0287,1.7863-307.011,0.2185-309.675c-0.8925-1.5152,1.9472-1.021,4.8046,0.8362 c1.4776,0.9603,7.0527,3.4843,12.3891,5.6089c14.2932,5.6901,71.535,35.2609,74.0315,34.3025 c3.0227-1.1599,1.9561-4.64-2.1699-7.0781c-0.3181-0.188-80.2168-45.4948-81.054-45.4948c-1.4178,0-1.403-0.8495,0.1066-6.0723 c1.1702-4.0499-0.2404-10.8251-2.2812-10.9571c-0.9793-0.0629-9.897-7.7729-7.2303-6.8602c3.1293,1.0712,3.8956-2.7014,0.7823-3.853 c-1.734-0.6414-2.1349-1.2619-1.1927-1.8443c2.0739-1.2816,1.7352-2.9174-0.5632-2.7223c-1.4409,0.1223-2.6235-1.9892-4.3208-7.7151 c-7.077-23.8713-8.2501-28.9658-11.3119-49.1206c-1.7109-11.2636-7.8534-56.7774-7.8534-58.1934C87.3262,0.2835,86.2347,0,84.9004,0 c-5.8905,0-0.2093,15.2578,8.5285,127.461c-1.9349,2.5365-6.1034,7.4816-6.1034,10.6005c0,1.678-1.612,3.6297-4.5482,5.507 c-2.5015,1.5991-9.7603,8.2919-16.1313,14.8726c-37.9748,39.2244-64.4047,60.5467-62.5047,65.4977 c0.9727,2.5349,0.9778,3.1968,26.18-18.8979c30.0003-26.3016,54.7402-46.1307,58.6227-50.0775 c1.8193-1.8493,3.2566-2.1123,7.8836-1.4417c3.1121,0.451,6.0495,1.0439,6.5268,1.3178 c0.9463,0.5424-4.9621,154.5515-11.8538,291.7325c-0.7379,14.6905-0.9138,15.4939-3.805,17.3882 c-7.4389,4.8738-1.9675-3.8331-87.6957-8.2797c0,28.7346,0.0056,1144.2451,0.0059,1175.6102H6000V781.3254 C5995.4668,780.8701,5970.3013,779.0799,5970.2715,774.7099z M5688.0698,711.4827c-0.2852,3.4764-0.624,4.1269-1.2954,2.4863 c-1.4487-3.5374-1.1533-10.0291,0.3857-8.4899C5687.873,706.1917,5688.2822,708.8933,5688.0698,711.4827z M2131.0684,184.3537 c-0.9666,20.2096-0.4839,20.0166-1.448,0.6064c-0.647-13.0281-0.0005-19.8202,1.6018-16.8325 C2131.5361,168.7136,2131.4673,176.0153,2131.0684,184.3537z M4154.354,476.1698c4.0034-2.5252,4.6123,0.6922,5.3354,28.1865 c0.3887,14.7807,0.4521,26.874,0.1406,26.874c-1.0894,0-17.9292-21.004-17.897-22.321 C4142.0278,505.1538,4152.6055,477.2728,4154.354,476.1698z M4129.7715,504.1247c6.4653,6.0739,7.2783,5.4004,4.0977,18.0632 c-1.0815,4.3063-2.4463,7.8296-3.0322,7.8296C4129.4473,530.0175,4129.7715,506.3846,4129.7715,504.1247z M4130.9844,578.3781 c0-38.1296-0.5854-36.772,3.8345-49.1469c2.1089-5.9047,4.2695-11.2321,4.8018-11.8386 c1.2661-1.4424,18.7725,17.3599,20.2744,18.9175c0.4609,27.1782,0.272,16.0321,0.7261,42.828 C4142.2646,579.3574,4139.644,579.4984,4130.9844,578.3781z M4814.937,449.3626c0.7207-5.6709,0.8232-5.8189,1.5845-2.282h-0.0005 c0.8428,3.913-0.5195,11.5691-1.6919,9.5106C4814.4648,455.9507,4814.5132,452.6979,4814.937,449.3626z M4814.125,481.857 c-0.936-0.3432-1.5161-2.8714-1.5161-6.608c0-5.1087,0.3311-5.9894,2.1226-5.6495c1.5615,0.2962,2.2231,1.8057,2.5034,5.7115 C4817.6318,480.8405,4816.7002,482.8013,4814.125,481.857z M4818.6733,449.5243c0-9.0133,1.8779-7.8134,3.0684,1.9608 c0.5098,4.1857,0.3896,6.9739-0.3013,6.9739C4819.1997,458.459,4818.6733,456.7589,4818.6733,449.5243z M4820.3535,474.5293 c1.0552-10.6367,1.1919-11.2576,2.2437-10.2059c0.5376,0.5381,1.3188,4.6237,1.7349,9.0791c0.729,7.8038,0.6567,8.1007-1.957,8.1007 C4819.8003,481.5032,4819.6968,481.1473,4820.3535,474.5293z M4824.7373,487.5676c-1.6143,0-1.6099-4.0271,0-3.0321 C4826.3525,485.5336,4826.3086,487.5676,4824.7373,487.5676z M4824.2847,459.0277c-0.9116-2.3756,1.0981-3.3206,2.772-1.3034h0.0005 c1.0547,1.2713,0.9678,1.8228-0.3687,2.3358C4825.7261,460.4294,4824.644,459.9648,4824.2847,459.0277z M4972.3335,450.2953 c0.1021,0,0.4478,2.4207-0.0454,3.6386C4971.4814,455.9285,4971.5859,447.4265,4972.3335,450.2953z M4972.2959,461.7943 c0.8149,2.0157-0.6108,5.598-0.6108,1.5161C4971.6851,461.6427,4971.9595,460.9605,4972.2959,461.7943z M4972.7061,471.194 c1.6094-0.9951,1.6143,3.0321,0,3.0321C4971.1294,474.2261,4971.0981,472.188,4972.7061,471.194z M4973.3838,488.7805 c-1.3828,0-1.6914-2.3487-0.7305-5.5618c1.0508-3.512,1.0581-3.5055,1.1611,1.0136 C4973.8721,486.7338,4973.6782,488.7805,4973.3838,488.7805z M4972.7969,494.6123c-1.7339,0.5779-1.7334-3.7514,0-3.1737 C4974.5024,492.0075,4974.5059,494.0423,4972.7969,494.6123z M4977.4185,483.093c1.0859-1.8662,1.2837-1.6039,1.3149,1.7456 c0.1309,0-0.0723,7.0154-1.9224,2.1961C4976.4429,486.0747,4976.7163,484.3009,4977.4185,483.093z M4978.77,496.0576 c-1.6021,0-1.6016-4.8514,0-4.8514C4980.3726,491.2061,4980.3721,496.0576,4978.77,496.0576z M5958.7568,773.8014 c-1.604,0-1.6035-2.4257,0-2.4257C5960.3608,771.3757,5960.3604,773.8014,5958.7568,773.8014z"/> </svg>